<!DOCTYPE svg PUBLIC "-//W3C//DTD SVG 1.1//EN" "http://www.w3.org/Graphics/SVG/1.1/DTD/svg11.dtd">
<!-- Uploaded to: SVG Repo, www.svgrepo.com, Transformed by: SVG Repo Mixer Tools -->
<svg height="800px" width="800px" version="1.1" id="Layer_1" xmlns="http://www.w3.org/2000/svg" xmlns:xlink="http://www.w3.org/1999/xlink" viewBox="0 0 512 512" xml:space="preserve" fill="#000000">
<g id="SVGRepo_bgCarrier" stroke-width="0"/>
<g id="SVGRepo_tracerCarrier" stroke-linecap="round" stroke-linejoin="round"/>
<g id="SVGRepo_iconCarrier"> <path style="fill:#e19075;" d="M89.6,473.6V38.4C89.6,17.193,106.793,0,128,0h345.6v435.2H448L89.6,473.6z"/> <polygon style="fill:#ec7d41;" points="280.32,0 280.32,453.165 448,435.2 473.6,435.2 473.6,0 "/> <path style="fill:#F8F8F9;" d="M128,512c-21.207,0-38.4-17.193-38.4-38.4s17.193-38.4,38.4-38.4h345.6 c-21.207,0-38.4,17.193-38.4,38.4s17.193,38.4,38.4,38.4H128z"/> <path style="fill:#EDEDED;" d="M435.2,473.6c0-21.207,17.193-38.4,38.4-38.4h-192V512h192C452.393,512,435.2,494.807,435.2,473.6z"/> <path style="fill:#88888F;" d="M140.8,371.2H38.4v-38.4h102.4V371.2z M140.8,243.2H38.4v38.4h102.4V243.2z M140.8,153.6H38.4V192 h102.4V153.6z M140.8,64H38.4v38.4h102.4V64z"/> </g>
</svg>